<svg version="1.1" id="Layer_1" xmlns="http://www.w3.org/2000/svg" xmlns:xlink="http://www.w3.org/1999/xlink" x="0px" y="0px"
	 width="100%" viewBox="0 0 1000 1000" enable-background="new 0 0 1000 1000" xml:space="preserve">
<path fill="#00000000" opacity="1.000000" stroke="none" 
	d="
M1.000000,354.000000 
	C1.000000,236.000015 1.000000,118.500031 1.000000,1.000031 
	C334.333282,1.000021 667.666565,1.000021 1000.999878,1.000010 
	C1000.999878,334.333221 1000.999878,667.666443 1000.999939,1000.999756 
	C667.666809,1000.999878 334.333588,1000.999878 1.000200,1000.999939 
	C1.000000,785.500000 1.000000,570.000000 1.000000,354.000000 
M73.005707,390.500000 
	C73.011139,515.996704 72.904373,641.493774 73.243530,766.989563 
	C73.269539,776.612427 71.937256,786.783997 76.620781,796.052734 
	C76.960899,796.725769 76.655579,797.700684 76.759254,798.521545 
	C77.288643,802.713074 77.310280,807.064697 78.518524,811.054749 
	C81.113068,819.622925 83.980415,828.145569 87.377975,836.423462 
	C91.150391,845.614563 95.030037,854.864136 99.994049,863.433044 
	C104.446220,871.118347 110.164711,878.135559 115.834778,885.027771 
	C119.857071,889.917053 124.653824,894.186035 129.250992,898.578918 
	C131.749634,900.966614 134.896408,902.733093 137.157684,905.301880 
	C145.161041,914.393738 156.144211,919.022400 166.496933,924.131836 
	C177.869873,929.744812 190.114243,933.711792 202.207367,937.703918 
	C210.327850,940.384705 218.773468,942.277588 227.209335,943.740295 
	C233.391541,944.812134 239.794037,944.931396 246.098541,944.933472 
	C416.094788,944.990967 586.091064,944.981140 756.087341,944.951782 
	C758.735840,944.951355 761.404175,944.705627 764.028870,944.332458 
	C770.842896,943.363770 777.694458,942.535339 784.426880,941.146179 
	C794.667114,939.033325 804.939819,936.905151 814.960144,933.969238 
	C820.265991,932.414673 824.854492,927.816467 830.149170,926.962341 
	C837.592041,925.761841 842.585388,920.452820 849.061646,917.738037 
	C856.823792,914.484131 863.179871,907.690674 869.848511,902.077881 
	C874.389221,898.256165 878.534973,893.938843 882.645081,889.640076 
	C885.965210,886.167664 889.092834,882.491028 892.081421,878.726868 
	C896.184570,873.559021 900.645203,868.549316 903.901306,862.869141 
	C907.286621,856.963440 909.314514,850.292603 912.127197,844.042419 
	C915.966003,835.512146 920.423584,827.338379 922.086243,817.856934 
	C923.663208,808.864014 927.231812,800.212280 928.699585,791.210754 
	C930.001038,783.228821 929.932190,774.972473 929.934998,766.837097 
	C929.996094,589.007629 929.985291,411.178192 929.957031,233.348755 
	C929.956604,230.701447 929.726135,228.028687 929.319641,225.411835 
	C928.244446,218.490097 930.184692,211.241669 926.539062,204.530670 
	C925.332336,202.309418 926.014771,199.139603 925.385193,196.510849 
	C924.130310,191.271347 922.914551,185.977203 921.054749,180.937347 
	C917.224609,170.558456 913.068665,160.296204 908.866943,150.059784 
	C907.151001,145.879150 905.442261,141.561142 902.892944,137.886551 
	C898.415894,131.433212 892.837280,125.726028 888.545837,119.166077 
	C881.538879,108.455002 871.246338,101.078430 862.019104,92.803902 
	C855.071045,86.573174 846.100098,82.393585 837.607056,78.145851 
	C828.506897,73.594452 818.999268,69.804428 809.485718,66.162025 
	C806.168213,64.891899 802.222534,65.373840 798.704773,64.492653 
	C790.895752,62.536510 783.288635,59.521523 775.388062,58.255943 
	C767.562866,57.002445 759.478638,57.068169 751.507874,57.065464 
	C584.344910,57.008785 417.181885,57.021492 250.018906,57.054024 
	C247.374878,57.054539 244.706833,57.318890 242.091599,57.726871 
	C235.155319,58.808945 228.030136,57.071468 221.122467,60.185173 
	C217.089432,62.003109 212.001816,61.316883 207.645065,62.616695 
	C199.393173,65.078598 191.359772,68.261993 183.174362,70.959892 
	C169.423782,75.492043 156.916229,82.482155 145.127930,90.676064 
	C139.108322,94.860229 133.661636,99.943832 128.311890,104.997620 
	C121.522034,111.411827 114.281937,117.599785 108.727882,125.004356 
	C102.658813,133.095551 97.896797,142.263962 93.304123,151.336960 
	C89.174988,159.494217 85.828873,168.075607 82.583694,176.639053 
	C81.262512,180.125412 81.299187,184.101990 80.404190,187.779144 
	C78.383728,196.080399 75.290436,204.226028 74.254936,212.634644 
	C72.980339,222.984695 73.085869,233.537231 73.062630,244.003296 
	C72.954948,292.502014 73.009361,341.001068 73.005707,390.500000 
z"/>
<path fill="#333332" opacity="1.000000" stroke="none" 
	d="
M73.005722,390.000000 
	C73.009361,341.001068 72.954948,292.502014 73.062630,244.003296 
	C73.085869,233.537231 72.980339,222.984695 74.254936,212.634644 
	C75.290436,204.226028 78.383728,196.080399 80.404190,187.779144 
	C81.299187,184.101990 81.262512,180.125412 82.583694,176.639053 
	C85.828873,168.075607 89.174988,159.494217 93.304123,151.336960 
	C97.896797,142.263962 102.658813,133.095551 108.727882,125.004356 
	C114.281937,117.599785 121.522034,111.411827 128.311890,104.997620 
	C133.661636,99.943832 139.108322,94.860229 145.127930,90.676064 
	C156.916229,82.482155 169.423782,75.492043 183.174362,70.959892 
	C191.359772,68.261993 199.393173,65.078598 207.645065,62.616695 
	C212.001816,61.316883 217.089432,62.003109 221.122467,60.185173 
	C228.030136,57.071468 235.155319,58.808945 242.091599,57.726871 
	C244.706833,57.318890 247.374878,57.054539 250.018906,57.054024 
	C417.181885,57.021492 584.344910,57.008785 751.507874,57.065464 
	C759.478638,57.068169 767.562866,57.002445 775.388062,58.255943 
	C783.288635,59.521523 790.895752,62.536510 798.704773,64.492653 
	C802.222534,65.373840 806.168213,64.891899 809.485718,66.162025 
	C818.999268,69.804428 828.506897,73.594452 837.607056,78.145851 
	C846.100098,82.393585 855.071045,86.573174 862.019104,92.803902 
	C871.246338,101.078430 881.538879,108.455002 888.545837,119.166077 
	C892.837280,125.726028 898.415894,131.433212 902.892944,137.886551 
	C905.442261,141.561142 907.151001,145.879150 908.866943,150.059784 
	C913.068665,160.296204 917.224609,170.558456 921.054749,180.937347 
	C922.914551,185.977203 924.130310,191.271347 925.385193,196.510849 
	C926.014771,199.139603 925.332336,202.309418 926.539062,204.530670 
	C930.184692,211.241669 928.244446,218.490097 929.319641,225.411835 
	C929.726135,228.028687 929.956604,230.701447 929.957031,233.348755 
	C929.985291,411.178192 929.996094,589.007629 929.934998,766.837097 
	C929.932190,774.972473 930.001038,783.228821 928.699585,791.210754 
	C927.231812,800.212280 923.663208,808.864014 922.086243,817.856934 
	C920.423584,827.338379 915.966003,835.512146 912.127197,844.042419 
	C909.314514,850.292603 907.286621,856.963440 903.901306,862.869141 
	C900.645203,868.549316 896.184570,873.559021 892.081421,878.726868 
	C889.092834,882.491028 885.965210,886.167664 882.645081,889.640076 
	C878.534973,893.938843 874.389221,898.256165 869.848511,902.077881 
	C863.179871,907.690674 856.823792,914.484131 849.061646,917.738037 
	C842.585388,920.452820 837.592041,925.761841 830.149170,926.962341 
	C824.854492,927.816467 820.265991,932.414673 814.960144,933.969238 
	C804.939819,936.905151 794.667114,939.033325 784.426880,941.146179 
	C777.694458,942.535339 770.842896,943.363770 764.028870,944.332458 
	C761.404175,944.705627 758.735840,944.951355 756.087341,944.951782 
	C586.091064,944.981140 416.094788,944.990967 246.098541,944.933472 
	C239.794037,944.931396 233.391541,944.812134 227.209335,943.740295 
	C218.773468,942.277588 210.327850,940.384705 202.207367,937.703918 
	C190.114243,933.711792 177.869873,929.744812 166.496933,924.131836 
	C156.144211,919.022400 145.161041,914.393738 137.157684,905.301880 
	C134.896408,902.733093 131.749634,900.966614 129.250992,898.578918 
	C124.653824,894.186035 119.857071,889.917053 115.834778,885.027771 
	C110.164711,878.135559 104.446220,871.118347 99.994049,863.433044 
	C95.030037,854.864136 91.150391,845.614563 87.377975,836.423462 
	C83.980415,828.145569 81.113068,819.622925 78.518524,811.054749 
	C77.310280,807.064697 77.288643,802.713074 76.759254,798.521545 
	C76.655579,797.700684 76.960899,796.725769 76.620781,796.052734 
	C71.937256,786.783997 73.269539,776.612427 73.243530,766.989563 
	C72.904373,641.493774 73.011139,515.996704 73.005722,390.000000 
M887.098022,379.500000 
	C887.094910,342.506836 886.997498,305.513367 887.117615,268.520599 
	C887.218872,237.356125 884.869568,206.676590 872.149292,177.598618 
	C861.809448,153.962250 845.867981,135.328110 823.692993,122.183281 
	C798.539734,107.273041 770.627258,101.983940 741.994568,100.512909 
	C722.047485,99.488113 702.011169,100.294220 682.019775,99.969986 
	C677.239807,99.892456 676.111084,101.628593 676.143005,106.058563 
	C676.307617,128.886765 676.215454,151.716843 676.205750,174.546265 
	C676.202454,182.263565 676.192810,182.277832 668.350647,182.278336 
	C600.695068,182.282715 533.039551,182.278412 465.383972,182.286987 
	C458.743530,182.287842 458.678589,182.319916 458.677307,188.939331 
	C458.662903,262.590393 458.665161,336.241486 458.680267,409.892548 
	C458.681610,416.452637 458.738159,416.473633 465.285248,416.474670 
	C508.111481,416.481415 550.937683,416.475891 593.763916,416.481018 
	C600.272217,416.481781 600.310791,416.497772 600.315186,423.108917 
	C600.331177,447.104279 600.312561,471.099640 600.321411,495.095001 
	C600.324097,502.254761 600.345825,502.248322 593.279785,502.248199 
	C550.287476,502.247314 507.295074,502.280121 464.302887,502.196838 
	C460.602417,502.189667 458.581390,502.587006 458.585724,507.211884 
	C458.708069,637.017700 458.711060,766.823547 458.604645,896.629395 
	C458.600983,901.085693 459.932831,902.226318 464.290131,902.219971 
	C544.607483,902.103210 624.925232,902.058350 705.242615,902.191833 
	C733.925110,902.239502 762.424500,901.864319 790.408325,893.919922 
	C830.976379,882.402893 859.456177,857.790344 874.724731,818.396057 
	C884.433350,793.346802 887.078186,767.083008 887.075195,740.430542 
	C887.061523,620.453674 887.086060,500.476868 887.098022,379.500000 
M351.616180,338.500183 
	C351.616150,261.174652 351.618073,183.849106 351.612366,106.523575 
	C351.611877,100.047630 351.587860,100.061394 344.966339,100.062988 
	C322.303101,100.068466 299.639862,100.048523 276.976624,100.066109 
	C248.275375,100.088371 220.164047,103.598915 193.555145,115.072350 
	C159.142151,129.910828 137.381607,156.165161 125.797630,191.318298 
	C118.479149,213.527267 116.145348,236.495071 116.140945,259.742523 
	C116.110466,420.551666 116.112419,581.360840 116.134941,742.169983 
	C116.138908,770.526428 119.609116,798.278625 131.016373,824.593384 
	C139.900650,845.087952 153.301987,861.963013 171.570847,874.829773 
	C198.284027,893.643860 228.996567,900.144043 260.725891,901.610352 
	C288.332428,902.886230 316.037018,902.045837 343.698334,902.126343 
	C351.603180,902.149414 351.616974,902.126648 351.617035,894.430237 
	C351.618286,709.453552 351.616394,524.476868 351.616180,338.500183 
z"/>
<path fill="#FDD363" opacity="1.000000" stroke="none" 
	d="
M887.097412,380.000000 
	C887.086060,500.476868 887.061523,620.453674 887.075195,740.430542 
	C887.078186,767.083008 884.433350,793.346802 874.724731,818.396057 
	C859.456177,857.790344 830.976379,882.402893 790.408325,893.919922 
	C762.424500,901.864319 733.925110,902.239502 705.242615,902.191833 
	C624.925232,902.058350 544.607483,902.103210 464.290131,902.219971 
	C459.932831,902.226318 458.600983,901.085693 458.604645,896.629395 
	C458.711060,766.823547 458.708069,637.017700 458.585724,507.211884 
	C458.581390,502.587006 460.602417,502.189667 464.302887,502.196838 
	C507.295074,502.280121 550.287476,502.247314 593.279785,502.248199 
	C600.345825,502.248322 600.324097,502.254761 600.321411,495.095001 
	C600.312561,471.099640 600.331177,447.104279 600.315186,423.108917 
	C600.310791,416.497772 600.272217,416.481781 593.763916,416.481018 
	C550.937683,416.475891 508.111481,416.481415 465.285248,416.474670 
	C458.738159,416.473633 458.681610,416.452637 458.680267,409.892548 
	C458.665161,336.241486 458.662903,262.590393 458.677307,188.939331 
	C458.678589,182.319916 458.743530,182.287842 465.383972,182.286987 
	C533.039551,182.278412 600.695068,182.282715 668.350647,182.278336 
	C676.192810,182.277832 676.202454,182.263565 676.205750,174.546265 
	C676.215454,151.716843 676.307617,128.886765 676.143005,106.058563 
	C676.111084,101.628593 677.239807,99.892456 682.019775,99.969986 
	C702.011169,100.294220 722.047485,99.488113 741.994568,100.512909 
	C770.627258,101.983940 798.539734,107.273041 823.692993,122.183281 
	C845.867981,135.328110 861.809448,153.962250 872.149292,177.598618 
	C884.869568,206.676590 887.218872,237.356125 887.117615,268.520599 
	C886.997498,305.513367 887.094910,342.506836 887.097412,380.000000 
z"/>
<path fill="#FDD363" opacity="1.000000" stroke="none" 
	d="
M351.615601,339.000183 
	C351.616394,524.476868 351.618286,709.453552 351.617035,894.430237 
	C351.616974,902.126648 351.603180,902.149414 343.698334,902.126343 
	C316.037018,902.045837 288.332428,902.886230 260.725891,901.610352 
	C228.996567,900.144043 198.284027,893.643860 171.570847,874.829773 
	C153.301987,861.963013 139.900650,845.087952 131.016373,824.593384 
	C119.609116,798.278625 116.138908,770.526428 116.134941,742.169983 
	C116.112419,581.360840 116.110466,420.551666 116.140945,259.742523 
	C116.145348,236.495071 118.479149,213.527267 125.797630,191.318298 
	C137.381607,156.165161 159.142151,129.910828 193.555145,115.072350 
	C220.164047,103.598915 248.275375,100.088371 276.976624,100.066109 
	C299.639862,100.048523 322.303101,100.068466 344.966339,100.062988 
	C351.587860,100.061394 351.611877,100.047630 351.612366,106.523575 
	C351.618073,183.849106 351.616150,261.174652 351.615601,339.000183 
z"/>
</svg>